<svg width="24" height="24" viewBox="0 0 24 24" fill="none" xmlns="http://www.w3.org/2000/svg">
<path d="M4.14146 0.629396C3.35122 0.936776 2.68293 1.34662 2.01463 2.01504C1.34634 2.67859 0.936585 3.3519 0.629268 4.13743C0.331707 4.89856 0.131707 5.7719 0.0731707 7.05021C0.0146341 8.32852 0 8.73836 0 11.9976C0 15.2568 0.0146341 15.6666 0.0731707 16.9449C0.131707 18.2232 0.336585 19.0966 0.629268 19.8577C0.936585 20.6481 1.34634 21.3165 2.01463 21.985C2.68293 22.6534 3.35122 23.0632 4.14146 23.3706C4.90244 23.6682 5.77561 23.8683 7.05366 23.9268C8.33171 23.9854 8.74146 24 12 24C15.2585 24 15.6683 23.9854 16.9463 23.9268C18.2244 23.8683 19.0976 23.6633 19.8585 23.3706C20.6488 23.0632 21.3171 22.6534 21.9854 21.985C22.6537 21.3165 23.0634 20.6481 23.3707 19.8577C23.6683 19.0966 23.8683 18.2232 23.9268 16.9449C23.9854 15.6666 24 15.2568 24 11.9976C24 8.73836 23.9854 8.32852 23.9268 7.05021C23.8683 5.7719 23.6634 4.89856 23.3707 4.13743C23.0634 3.3519 22.6537 2.67859 21.9902 2.01504C21.3219 1.34662 20.6537 0.936776 19.8634 0.629396C19.1024 0.331775 18.2293 0.131734 16.9512 0.0731856C15.6732 0.0146371 15.2634 0 12.0049 0C8.74634 0 8.33659 0.0146371 7.05854 0.0731856C5.77561 0.126855 4.90244 0.331775 4.14146 0.629396ZM16.8488 2.22972C18.0195 2.28339 18.6537 2.47855 19.078 2.64444C19.639 2.864 20.039 3.12259 20.4585 3.54218C20.878 3.96178 21.1366 4.36186 21.3561 4.92295C21.5219 5.34743 21.7171 5.9817 21.7707 7.15267C21.8293 8.41634 21.839 8.79691 21.839 12.0024C21.839 15.208 21.8244 15.5885 21.7707 16.8522C21.7171 18.0232 21.5219 18.6574 21.3561 19.0819C21.1366 19.643 20.878 20.0431 20.4585 20.4627C20.039 20.8823 19.639 21.1409 19.078 21.3604C18.6537 21.5263 18.0195 21.7215 16.8488 21.7752C15.5854 21.8337 15.2049 21.8435 12 21.8435C8.79512 21.8435 8.41463 21.8288 7.15122 21.7752C5.98049 21.7215 5.34634 21.5263 4.92195 21.3604C4.36098 21.1409 3.96098 20.8823 3.54146 20.4627C3.12195 20.0431 2.86341 19.643 2.6439 19.0819C2.47805 18.6574 2.28293 18.0232 2.22927 16.8522C2.17073 15.5885 2.16098 15.208 2.16098 12.0024C2.16098 8.79691 2.17561 8.41634 2.22927 7.15267C2.28293 5.9817 2.47805 5.34743 2.6439 4.92295C2.86341 4.36186 3.12195 3.96178 3.54146 3.54218C3.96098 3.12259 4.36098 2.864 4.92195 2.64444C5.34634 2.47855 5.98049 2.28339 7.15122 2.22972C8.41463 2.17117 8.79512 2.16141 12 2.16141C15.2049 2.16141 15.5854 2.17117 16.8488 2.22972Z" fill="url(#paint0_radial)"/>
<path d="M5.83923 12.0026C5.83923 15.4081 8.60021 18.1648 12.0002 18.1648C15.4002 18.1648 18.1612 15.4032 18.1612 12.0026C18.1612 8.60187 15.4051 5.84033 12.0002 5.84033C8.59533 5.84033 5.83923 8.59699 5.83923 12.0026ZM16.0002 12.0026C16.0002 14.2128 14.21 16.0034 12.0002 16.0034C9.79045 16.0034 8.00021 14.2128 8.00021 12.0026C8.00021 9.79235 9.79045 8.00175 12.0002 8.00175C14.21 8.00175 16.0002 9.79235 16.0002 12.0026Z" fill="url(#paint1_radial)"/>
<path d="M18.4096 7.03562C19.2044 7.03562 19.8486 6.39121 19.8486 5.5963C19.8486 4.80139 19.2044 4.15698 18.4096 4.15698C17.6149 4.15698 16.9706 4.80139 16.9706 5.5963C16.9706 6.39121 17.6149 7.03562 18.4096 7.03562Z" fill="#654C9F"/>
<defs>
<radialGradient id="paint0_radial" cx="0" cy="0" r="1" gradientUnits="userSpaceOnUse" gradientTransform="translate(0.436681 21.8027) rotate(-3.0007) scale(34.6983 29.4991)">
<stop stop-color="#FED576"/>
<stop offset="0.2634" stop-color="#F47133"/>
<stop offset="0.6091" stop-color="#BC3081"/>
<stop offset="1" stop-color="#4C63D2"/>
</radialGradient>
<radialGradient id="paint1_radial" cx="0" cy="0" r="1" gradientUnits="userSpaceOnUse" gradientTransform="translate(6.06271 17.0347) rotate(-3.0007) scale(17.818 15.1482)">
<stop stop-color="#FED576"/>
<stop offset="0.2634" stop-color="#F47133"/>
<stop offset="0.6091" stop-color="#BC3081"/>
<stop offset="1" stop-color="#4C63D2"/>
</radialGradient>
</defs>
</svg>
