<svg width="62" height="39" viewBox="0 0 62 39" fill="none" xmlns="http://www.w3.org/2000/svg">
<g opacity="0.5" clip-path="url(#clip0)">
<g clip-path="url(#clip1)">
<path d="M40.6182 5.40063H26.3929L23.6222 9.18034H36.9282L35.9634 6.24199L39.8489 9.18034H41.0745V9.85597H39.9076L35.7612 16.0322L36.8695 9.85597H34.7638L33.2513 14.5981L31.7323 9.85597H29.7699L30.4153 13.7377L26.8362 9.85597H23.6156L33.5055 20.7553L43.6693 9.5564L40.6182 5.40063Z" fill="white"/>
<path d="M19.2672 12.3926C19.2672 17.7976 15.5381 22.5143 8.54935 22.5143C6.30668 22.5143 4.32479 22.2083 4.06401 22.2083C3.93363 22.2083 2.29074 22.2848 1.50842 22.2848C1.22156 22.2848 1.09118 22.2338 1.09118 22.0808C1.09118 22.0043 1.14333 21.9279 1.2998 21.9279C1.53449 21.9279 1.84742 21.9024 2.08212 21.8259C2.49936 21.6984 2.62975 21.4689 2.78622 20.7296C2.9166 20.0667 2.96876 18.0016 2.96876 14.8911V10.4039C2.96876 6.1207 2.94268 5.04989 2.89053 4.61647C2.81229 4.00458 2.65583 3.62214 1.79527 3.44368C1.58665 3.39269 1.14333 3.36719 0.908633 3.36719C0.804322 3.36719 0.700012 3.3162 0.700012 3.21422C0.700012 3.06124 0.8304 3.01025 1.11725 3.01025C2.29074 3.01025 3.93363 3.08674 4.06401 3.08674C4.37695 3.08674 6.09806 3.01025 7.66272 3.01025C13.8431 3.01025 19.2672 5.43232 19.2672 12.3926ZM5.15927 16.0129C5.15927 18.7409 5.15927 20.8698 6.16978 21.3797C6.55442 21.5709 7.28459 21.6474 8.62758 21.6474C13.6866 21.6474 16.9202 18.4095 16.9202 13.1829C16.9202 7.06403 12.1481 3.8771 5.88944 3.8771C5.36789 3.8771 5.15927 4.28503 5.15927 6.42664V16.0129Z" fill="white"/>
<path d="M59.4201 6.618C59.2311 6.618 59.1985 6.49052 59.1659 6.28656C59.1333 5.98061 58.9442 5.29861 58.7552 5.02453C58.5661 4.74408 57.7186 3.68602 54.8174 3.68602C52.6465 3.68602 50.9449 4.77595 50.9449 6.618C50.9449 8.05849 51.7925 8.94446 54.7914 10.8694L56.6494 12.0613C59.0094 13.5783 60.2742 15.2227 60.2742 17.3771C60.2742 20.239 57.6599 22.6419 52.8356 22.6419C51.3557 22.6419 49.9084 22.4634 48.611 21.9599C48.1677 21.7814 48.1416 21.6794 48.1416 20.9974C48.1416 19.7354 48.2655 18.722 48.2981 18.314C48.3307 18.0336 48.3959 17.9061 48.5523 17.9061C48.7414 17.9061 48.774 17.9826 48.774 18.1866C48.774 18.416 48.774 18.7666 48.8718 19.1235C49.3412 20.9974 51.4209 21.7049 53.5331 21.7049C56.5581 21.7049 58.038 19.9585 58.038 18.3395C58.038 16.5931 57.1253 15.5797 54.4132 13.7822L52.9985 12.8453C49.6606 10.6463 48.9044 9.07831 48.9044 7.35737C48.8979 4.64847 51.4208 2.80005 55.4172 2.80005C56.6429 2.80005 57.5621 2.90203 58.3444 3.055C58.9442 3.15699 59.192 3.18248 59.4462 3.18248C59.7005 3.18248 59.7591 3.23347 59.7591 3.36095C59.7591 3.48843 59.6353 4.3234 59.6353 6.04435C59.6418 6.4459 59.5766 6.618 59.4201 6.618Z" fill="white"/>
<path d="M4.32477 33.044C4.32477 34.9052 4.32477 35.6191 3.97272 36.4349C3.72499 37.0086 3.20996 37.5504 2.25812 38.1941C2.10818 38.2961 1.91912 38.4236 1.80177 38.4809C1.77569 38.4937 1.75613 38.5064 1.71702 38.5064C1.68442 38.5064 1.63226 38.4809 1.63226 38.4363C1.63226 38.3662 1.69094 38.3343 1.79525 38.2642C1.93867 38.1814 2.10166 38.0475 2.20597 37.9455C2.96874 37.1871 3.33382 36.5752 3.33382 33.6113V30.2905C3.33382 28.4995 3.33382 28.1744 3.30775 27.8111C3.28167 27.4223 3.1904 27.2375 2.79923 27.1546C2.70796 27.1291 2.50586 27.1227 2.40155 27.1227C2.35592 27.1227 2.31028 27.0972 2.31028 27.0526C2.31028 26.9825 2.36895 26.9634 2.49934 26.9634C3.02741 26.9634 3.77062 26.9952 3.8293 26.9952C3.88797 26.9952 4.63118 26.9634 4.98323 26.9634C5.11362 26.9634 5.17229 26.9889 5.17229 27.0526C5.17229 27.0972 5.12666 27.1227 5.08102 27.1227C4.99627 27.1227 4.93107 27.1355 4.78765 27.1546C4.4682 27.212 4.37693 27.4095 4.35085 27.8111C4.32477 28.1808 4.32477 28.4995 4.32477 30.2905V33.044Z" fill="white"/>
<path d="M9.37729 30.692C9.37729 30.7749 9.39033 30.8068 9.44901 30.8068C9.59895 30.8068 11.0463 30.8068 11.3201 30.7813C11.6004 30.7558 11.7699 30.7367 11.8742 30.6219C11.959 30.5327 12.0046 30.4753 12.0502 30.4753C12.0828 30.4753 12.1089 30.5008 12.1089 30.5646C12.1089 30.6092 11.9655 31.3804 11.9655 31.9413C11.9655 32.0688 11.9525 32.158 11.8807 32.158C11.8221 32.158 11.796 32.1134 11.796 32.0561C11.796 31.9413 11.796 31.8266 11.7504 31.68C11.7047 31.5206 11.6004 31.3231 11.1375 31.2784C10.8181 31.2466 9.65763 31.2211 9.45553 31.2211C9.39685 31.2211 9.37077 31.2529 9.37077 31.3039V34.2805C9.37077 35.039 9.57939 35.2239 10.7333 35.2239C11.0397 35.2239 11.5548 35.2239 11.8612 35.0964C12.1676 34.9689 12.311 34.7395 12.3893 34.2678C12.4153 34.1403 12.4349 34.0957 12.4936 34.0957C12.5653 34.0957 12.5653 34.1849 12.5653 34.2678C12.5653 34.357 12.474 35.141 12.4153 35.3832C12.3306 35.6828 12.2393 35.6828 11.7829 35.6828C10.0097 35.6828 9.22083 35.6127 8.88182 35.6127C8.57541 35.6127 7.98867 35.6445 7.72789 35.6445C7.5975 35.6445 7.53883 35.619 7.53883 35.5553C7.53883 35.5234 7.56491 35.4852 7.6301 35.4852C7.73441 35.4852 7.87784 35.4724 7.98215 35.4406C8.17121 35.3832 8.22988 35.2812 8.3016 34.9434C8.36027 34.6438 8.38635 33.7133 8.38635 32.311V30.2905C8.38635 28.3592 8.37331 27.8748 8.35375 27.6836C8.32115 27.4095 8.24944 27.2374 7.85828 27.1546C7.76701 27.1291 7.5649 27.1227 7.46059 27.1227C7.41496 27.1227 7.36932 27.0972 7.36932 27.0526C7.36932 26.9825 7.428 26.9633 7.55839 26.9633C8.08646 26.9633 8.82967 26.9952 8.88834 26.9952C10.1596 26.9952 11.3592 26.9825 11.5417 26.9697C11.7308 26.957 12.0111 26.9378 12.0568 26.9251C12.1285 26.8996 12.1741 26.855 12.2197 26.855C12.2654 26.855 12.2915 26.9251 12.2915 26.9825C12.2915 27.0653 12.2328 27.1992 12.2002 27.5242C12.1871 27.639 12.1676 28.1425 12.1415 28.2827C12.1285 28.3401 12.1089 28.3975 12.0502 28.3975C11.9916 28.3975 11.9655 28.3528 11.9655 28.27C11.9655 28.1807 11.9329 27.9832 11.8612 27.8302C11.7895 27.6836 11.5091 27.4541 10.8181 27.4541C10.7464 27.4541 9.69022 27.4223 9.45553 27.4223C9.40989 27.4223 9.38381 27.4477 9.38381 27.5242V30.692H9.37729Z" fill="white"/>
<path d="M23.4983 34.0575H23.5439C23.8634 32.9995 24.9456 29.6659 25.3563 28.1999C25.4737 27.7729 25.4867 27.6135 25.4867 27.4669C25.4867 27.263 25.3563 27.1228 24.8152 27.1228C24.7565 27.1228 24.7109 27.0909 24.7109 27.0399C24.7109 26.9825 24.7696 26.957 24.913 26.957C25.5128 26.957 26.0082 26.9889 26.1126 26.9889C26.1973 26.9889 26.6993 26.957 27.0644 26.957C27.1687 26.957 27.2274 26.9825 27.2274 27.0271C27.2274 27.0845 27.1948 27.1164 27.1231 27.1164C27.0774 27.1164 26.8558 27.1291 26.7254 27.1737C26.3733 27.3012 26.1843 27.7856 25.9626 28.4166C25.4476 29.8763 24.2611 33.5285 23.7982 34.816C23.4918 35.6637 23.4331 35.804 23.3027 35.804C23.1854 35.804 23.1136 35.6574 22.9507 35.2048L20.6493 28.8182H20.6232C20.1995 29.9209 18.5892 34.1276 18.1654 35.1984C17.9764 35.6828 17.9177 35.8103 17.7808 35.8103C17.6634 35.8103 17.6048 35.6828 17.3701 34.9052L15.2773 28.0916C15.0883 27.4797 14.9383 27.3076 14.6319 27.1929C14.482 27.1355 14.1821 27.1228 14.1039 27.1228C14.0452 27.1228 13.9995 27.11 13.9995 27.0399C13.9995 26.9825 14.0713 26.957 14.1886 26.957C14.8014 26.957 15.4468 26.9889 15.5772 26.9889C15.6815 26.9889 16.2031 26.957 16.7898 26.957C16.9528 26.957 16.9985 26.9889 16.9985 27.0399C16.9985 27.11 16.9398 27.1228 16.8811 27.1228C16.7898 27.1228 16.5617 27.1228 16.4248 27.1929C16.353 27.2247 16.2748 27.3203 16.2748 27.4669C16.2748 27.6135 16.3791 28.0215 16.4965 28.525C16.6725 29.258 17.8981 33.4775 18.0742 34.0894H18.1002L20.5711 27.5307C20.7471 27.059 20.7927 27.0016 20.8645 27.0016C20.9492 27.0016 21.0144 27.1482 21.1578 27.5434L23.4983 34.0575Z" fill="white"/>
<path d="M30.5131 30.692C30.5131 30.7749 30.5262 30.8068 30.5849 30.8068C30.7348 30.8068 32.1821 30.8068 32.4559 30.7813C32.7363 30.7558 32.9058 30.7367 33.0101 30.6219C33.0948 30.5327 33.1405 30.4753 33.1861 30.4753C33.2187 30.4753 33.2448 30.5008 33.2448 30.5646C33.2448 30.6092 33.1013 31.3804 33.1013 31.9413C33.1013 32.0688 33.0883 32.158 33.0166 32.158C32.9579 32.158 32.9318 32.1134 32.9318 32.0561C32.9318 31.9413 32.9318 31.8266 32.8862 31.68C32.8406 31.5206 32.7363 31.3231 32.2734 31.2784C31.9539 31.2466 30.7935 31.2211 30.5914 31.2211C30.5327 31.2211 30.5066 31.2529 30.5066 31.3039V34.2805C30.5066 35.039 30.7153 35.2239 31.8692 35.2239C32.1756 35.2239 32.6906 35.2239 32.997 35.0964C33.3034 34.9689 33.4403 34.7395 33.5251 34.2678C33.5512 34.1403 33.5707 34.0957 33.6294 34.0957C33.7011 34.0957 33.7011 34.1849 33.7011 34.2678C33.7011 34.357 33.6098 35.141 33.5512 35.3832C33.4664 35.6828 33.3751 35.6828 32.9188 35.6828C31.1455 35.6828 30.3567 35.6127 30.0177 35.6127C29.7113 35.6127 29.1245 35.6445 28.8638 35.6445C28.7334 35.6445 28.6747 35.619 28.6747 35.5553C28.6747 35.5234 28.7008 35.4852 28.766 35.4852C28.8703 35.4852 29.0137 35.4724 29.118 35.4406C29.3071 35.3832 29.3657 35.2812 29.4375 34.9434C29.4961 34.6438 29.5222 33.7133 29.5222 32.311V30.2905C29.5222 28.3592 29.5092 27.8748 29.4896 27.6836C29.457 27.4095 29.3853 27.2374 28.9941 27.1546C28.9029 27.1291 28.7008 27.1227 28.5965 27.1227C28.5508 27.1227 28.5052 27.0972 28.5052 27.0526C28.5052 26.9825 28.5639 26.9633 28.6942 26.9633C29.2223 26.9633 29.9655 26.9952 30.0242 26.9952C31.2955 26.9952 32.495 26.9825 32.6776 26.9697C32.8666 26.957 33.147 26.9378 33.1926 26.9251C33.2643 26.8996 33.31 26.855 33.3556 26.855C33.4012 26.855 33.4273 26.9251 33.4273 26.9825C33.4273 27.0653 33.3686 27.1992 33.336 27.5242C33.323 27.639 33.3034 28.1425 33.2774 28.2827C33.2643 28.3401 33.2448 28.3975 33.1861 28.3975C33.1274 28.3975 33.1013 28.3528 33.1013 28.27C33.1013 28.1807 33.0687 27.9832 32.997 27.8302C32.9253 27.6836 32.645 27.4541 31.9539 27.4541C31.8822 27.4541 30.8261 27.4223 30.5914 27.4223C30.5457 27.4223 30.5197 27.4477 30.5197 27.5242V30.692H30.5131Z" fill="white"/>
<path d="M37.9974 32.3302C37.9974 34.0192 38.043 34.7522 38.2582 34.9626C38.4472 35.1474 38.7536 35.2239 39.6663 35.2239C40.2922 35.2239 40.8072 35.2112 41.0876 34.8797C41.2375 34.6949 41.3549 34.408 41.394 34.1913C41.407 34.1021 41.4266 34.0447 41.4983 34.0447C41.557 34.0447 41.57 34.0894 41.57 34.2168C41.57 34.3443 41.4853 35.0327 41.394 35.3641C41.3092 35.6255 41.2766 35.6764 40.6508 35.6764C38.9557 35.6764 38.1799 35.6063 37.5019 35.6063C37.3976 35.6063 36.7 35.6382 36.348 35.6382C36.2176 35.6382 36.1589 35.6127 36.1589 35.549C36.1589 35.5171 36.185 35.4789 36.2502 35.4789C36.3545 35.4789 36.4979 35.4534 36.6022 35.4342C36.8369 35.3896 36.8956 35.1347 36.9413 34.8032C36.9999 34.3188 36.9999 33.4137 36.9999 32.311V30.2905C36.9999 28.4995 36.9999 28.1744 36.9738 27.8111C36.9478 27.4223 36.8565 27.2375 36.4653 27.1546C36.3741 27.1291 36.172 27.1227 36.0677 27.1227C36.022 27.1227 35.9764 27.0972 35.9764 27.0526C35.9764 26.9825 36.0351 26.9634 36.1654 26.9634C36.6935 26.9634 37.4367 26.9952 37.4954 26.9952C37.5541 26.9952 38.4146 26.9634 38.7667 26.9634C38.8971 26.9634 38.9557 26.9889 38.9557 27.0526C38.9557 27.0972 38.9101 27.1227 38.8645 27.1227C38.7797 27.1227 38.6167 27.1355 38.4733 27.1546C38.1343 27.212 38.0365 27.4095 38.0169 27.8111C37.9909 28.1808 37.9909 28.4995 37.9909 30.2905V32.3302H37.9974Z" fill="white"/>
<path d="M44.2886 30.2842C44.2886 28.4931 44.2886 28.1681 44.2625 27.8048C44.2365 27.4159 44.1452 27.2311 43.754 27.1482C43.6628 27.1228 43.4607 27.1164 43.3563 27.1164C43.3107 27.1164 43.2651 27.0909 43.2651 27.0463C43.2651 26.9762 43.3237 26.957 43.4541 26.957C43.9822 26.957 44.7254 26.9889 44.7841 26.9889C44.9145 26.9889 45.8076 26.957 46.1727 26.957C46.9159 26.957 47.6983 27.0271 48.3241 27.4606C48.6175 27.6645 49.1325 28.2318 49.1325 29.0222C49.1325 29.8699 48.7674 30.724 47.7113 31.6737C48.6762 32.8784 49.4715 33.9045 50.1561 34.6184C50.7884 35.2749 51.297 35.4024 51.5903 35.447C51.812 35.4789 51.9815 35.4789 52.0467 35.4789C52.1054 35.4789 52.151 35.5108 52.151 35.549C52.151 35.6191 52.0793 35.6382 51.8707 35.6382H51.0297C50.3712 35.6382 50.0778 35.5809 49.7714 35.4215C49.2629 35.1602 48.8522 34.5929 48.1872 33.7324C47.6917 33.1014 47.1441 32.3302 46.9094 32.0306C46.8638 31.986 46.8247 31.9605 46.7595 31.9605L45.3122 31.935C45.2535 31.935 45.2274 31.9669 45.2274 32.0243V32.2983C45.2274 33.401 45.2274 34.3061 45.2861 34.7905C45.3187 35.122 45.3904 35.3769 45.7424 35.4215C45.9054 35.447 46.1662 35.4661 46.2705 35.4661C46.3422 35.4661 46.3618 35.498 46.3618 35.5363C46.3618 35.5936 46.3031 35.6255 46.1727 35.6255C45.5273 35.6255 44.7841 35.5936 44.7254 35.5936C44.7124 35.5936 43.9757 35.6255 43.6236 35.6255C43.4933 35.6255 43.4346 35.6 43.4346 35.5363C43.4346 35.5044 43.4607 35.4661 43.5259 35.4661C43.6302 35.4661 43.7736 35.4406 43.8779 35.4215C44.1126 35.3769 44.1713 35.122 44.2169 34.7905C44.2756 34.3061 44.2756 33.401 44.2756 32.2983V30.2842H44.2886ZM45.2274 31.2849C45.2274 31.3422 45.2535 31.3869 45.3122 31.4251C45.4882 31.5271 46.0293 31.61 46.5443 31.61C46.8247 31.61 47.1571 31.5781 47.4244 31.3932C47.8352 31.1192 48.1416 30.4945 48.1416 29.6213C48.1416 28.1872 47.3658 27.3203 46.1075 27.3203C45.7555 27.3203 45.436 27.3522 45.3187 27.3905C45.26 27.4159 45.2274 27.4606 45.2274 27.5307V31.2849Z" fill="white"/>
<path d="M56.1799 32.668C56.1799 32.0497 56.0626 31.7948 55.9126 31.4634C55.8279 31.2785 54.2567 28.7545 53.846 28.1553C53.5526 27.7283 53.2592 27.4414 53.0441 27.3076C52.8681 27.1929 52.6464 27.1228 52.5356 27.1228C52.4769 27.1228 52.4182 27.0973 52.4182 27.0399C52.4182 26.9953 52.4639 26.957 52.5682 26.957C52.7898 26.957 53.67 26.9889 53.7286 26.9889C53.8134 26.9889 54.2567 26.957 54.7131 26.957C54.8435 26.957 54.863 26.9889 54.863 27.0399C54.863 27.0845 54.7913 27.0973 54.687 27.1419C54.5957 27.1865 54.537 27.2566 54.537 27.3458C54.537 27.4861 54.5957 27.6199 54.687 27.792C54.8761 28.1234 56.6363 31.0873 56.8514 31.4251C57.0731 30.9407 58.566 28.423 58.8007 28.047C58.9507 27.8048 59.0028 27.6072 59.0028 27.4606C59.0028 27.3012 58.9572 27.1737 58.8138 27.1419C58.7095 27.11 58.6377 27.0845 58.6377 27.0271C58.6377 26.9825 58.7095 26.957 58.8268 26.957C59.1332 26.957 59.5113 26.9889 59.6026 26.9889C59.6743 26.9889 60.5218 26.957 60.7435 26.957C60.8283 26.957 60.8934 26.9825 60.8934 27.0271C60.8934 27.0845 60.8348 27.1164 60.7435 27.1164C60.6131 27.1164 60.3915 27.161 60.2024 27.2757C59.9677 27.4159 59.8373 27.5498 59.5765 27.8621C59.1919 28.321 57.5425 31.0236 57.3339 31.5143C57.1578 31.9286 57.1578 32.2856 57.1578 32.6616V33.6496C57.1578 33.8344 57.1578 34.3188 57.1904 34.7969C57.2165 35.1283 57.3208 35.3833 57.6729 35.4279C57.8359 35.4534 58.0966 35.4725 58.2009 35.4725C58.2727 35.4725 58.2922 35.5044 58.2922 35.5426C58.2922 35.6 58.2335 35.6319 58.1032 35.6319C57.4577 35.6319 56.7145 35.6 56.6558 35.6C56.5972 35.6 55.854 35.6319 55.5019 35.6319C55.3715 35.6319 55.3129 35.6064 55.3129 35.5426C55.3129 35.5108 55.3389 35.4725 55.4041 35.4725C55.5084 35.4725 55.6519 35.447 55.7562 35.4279C55.9909 35.3833 56.0952 35.1283 56.1213 34.7969C56.1539 34.3125 56.1539 33.8344 56.1539 33.6496V32.668H56.1799Z" fill="white"/>
</g>
</g>
<defs>
<clipPath id="clip0">
<rect width="61.6" height="38.5" fill="white"/>
</clipPath>
<clipPath id="clip1">
<rect width="61.6" height="37.1" fill="white" transform="translate(0 2.80005)"/>
</clipPath>
</defs>
</svg>
