<svg width="24" height="24" viewBox="0 0 24 24" fill="none" xmlns="http://www.w3.org/2000/svg">
<path d="M3.40454 11.1055C3.63536 11.7108 3.97306 12.3559 4.4175 13.0225L3.40454 11.1055ZM3.40454 11.1055C3.1297 10.3836 3 9.69697 3 9.05874C3 8.37338 3.13677 7.70959 3.40535 7.08257L3.40454 11.1055ZM19.498 5.47626L19.4972 5.47548C19.0285 5.01394 18.4762 4.64739 17.8703 4.39556L17.869 4.39502C17.2404 4.13267 16.5663 3.99844 15.8858 4.00001L15.8835 4.00002C14.9261 4.00002 13.9934 4.2633 13.1835 4.75969L13.1835 4.75971C12.9896 4.87849 12.8062 5.0085 12.6328 5.14978L12.0011 5.66453L11.3694 5.14978C11.1961 5.0085 11.0126 4.87849 10.8188 4.75971L10.8188 4.75969C10.0089 4.2633 9.07624 4.00002 8.11876 4.00002C7.42745 4.00002 6.7621 4.13259 6.13323 4.39502L6.13215 4.39547C5.52384 4.64849 4.97632 5.01183 4.50481 5.47578L4.50346 5.47711C4.03665 5.93468 3.6635 6.48007 3.40538 7.08249L19.498 5.47626ZM19.498 5.47626C19.9646 5.93477 20.338 6.48052 20.5972 7.08308C20.8656 7.70997 21.0019 8.37266 21 9.05592V9.05874C21 9.69697 20.8703 10.3836 20.5954 11.1055L20.5946 11.1078C20.3671 11.7097 20.0282 12.354 19.5825 13.0225C18.8774 14.0786 17.8897 15.206 16.6345 16.3702C14.5463 18.3055 12.477 19.6435 12.4066 19.6889L12.4064 19.689L12 19.9508L11.5936 19.689L11.5857 19.6839L11.5778 19.679C11.5782 19.6793 11.5777 19.6789 11.5761 19.6779C11.5683 19.6729 11.5361 19.6523 11.4775 19.6136C11.411 19.5697 11.3167 19.5066 11.1983 19.4257C10.9616 19.2638 10.6302 19.0313 10.2353 18.7392C9.4439 18.1539 8.40547 17.3351 7.36586 16.3706L7.36575 16.3705M19.498 5.47626L7.36575 16.3705M7.36575 16.3705C6.11057 15.2063 5.12294 14.079 4.41782 13.023L7.36575 16.3705Z" stroke="#A39385" stroke-width="2"/>
</svg>
