<svg width="20" height="18" viewBox="0 0 20 18" fill="none" xmlns="http://www.w3.org/2000/svg">
<path d="M17.6732 2.29794L17.6726 2.29735C17.1811 1.81334 16.6018 1.42887 15.9663 1.16471L15.9653 1.1643C15.306 0.889154 14.599 0.748364 13.8853 0.750014L13.8835 0.750018C12.8801 0.750016 11.9022 1.02597 11.0529 1.54654L11.0528 1.54655C10.8496 1.6711 10.657 1.80757 10.4749 1.95598L10.0011 2.34204L9.52737 1.95598C9.34525 1.80757 9.1527 1.6711 8.94946 1.54655L8.94944 1.54654C8.10006 1.02597 7.1222 0.750016 6.11876 0.750016C5.39481 0.750016 4.6967 0.888986 4.03695 1.1643L4.03614 1.16464C3.39817 1.42999 2.82375 1.81123 2.32947 2.29758L2.32845 2.29858C1.83829 2.77905 1.44654 3.35166 1.17558 3.98406L17.6732 2.29794ZM17.6732 2.29794C18.163 2.77926 18.555 3.35208 18.8269 3.98444C19.1087 4.64243 19.252 5.3389 19.25 6.05662V6.05874C19.25 6.73103 19.1133 7.44774 18.8291 8.19447L18.8284 8.19616C18.593 8.81915 18.2445 9.48028 17.7904 10.1613C17.0717 11.2377 16.07 12.3798 14.8044 13.5536C12.7006 15.5034 10.6173 16.8505 10.5419 16.8991L10.5418 16.8991L9.99999 17.2482L9.45819 16.8991L9.45826 16.899L9.44635 16.8917C9.44675 16.8919 9.44656 16.8918 9.44571 16.8913C9.44318 16.8897 9.43485 16.8844 9.41921 16.8742C9.40024 16.8619 9.3736 16.8446 9.33978 16.8222C9.27216 16.7776 9.17665 16.7137 9.05719 16.632C8.81823 16.4686 8.48426 16.2343 8.08661 15.9402C7.29015 15.3511 6.24408 14.5264 5.19582 13.5539L5.19574 13.5538M17.6732 2.29794L5.19574 13.5538M5.19574 13.5538C3.93025 12.3801 2.9285 11.238 2.20983 10.1617C1.75657 9.48196 1.40945 8.82004 1.17089 8.19447C0.886634 7.44774 0.75 6.73103 0.75 6.05874C0.75 5.33947 0.893673 4.64219 1.17556 3.98411L5.19574 13.5538Z" stroke="#B8A99C" stroke-width="1.5"/>
</svg>
