<svg width="25" height="24" viewBox="0 0 25 24" fill="none" xmlns="http://www.w3.org/2000/svg">
<path d="M8.33333 11.9967C8.33333 9.78956 10.1975 8 12.4965 8C14.7956 8 16.6667 9.78956 16.6667 11.9967C16.6667 14.2038 14.8025 15.9934 12.4965 15.9934C10.1975 16 8.33333 14.2104 8.33333 11.9967ZM6.08257 11.9967C6.08257 15.3969 8.95471 18.1607 12.5035 18.1607C16.0522 18.1607 18.9243 15.4035 18.9243 11.9967C18.9243 8.58989 16.0522 5.83264 12.5035 5.83264C8.95471 5.83927 6.08257 8.59652 6.08257 11.9967ZM17.6747 5.59403C17.6747 6.38939 18.3444 7.03231 19.1729 7.03231C20.0014 7.03231 20.6711 6.38939 20.6711 5.59403C20.6711 4.79867 20.0014 4.15576 19.1729 4.15576C18.3444 4.15576 17.6747 4.79867 17.6747 5.59403ZM7.4496 21.7664C6.22756 21.7133 5.57167 21.5211 5.1298 21.3554C4.54294 21.1367 4.12869 20.8782 3.69373 20.4606C3.25877 20.0431 2.9826 19.6388 2.76167 19.082C2.58906 18.6578 2.38884 18.0215 2.33361 16.855C2.27147 15.5891 2.25766 15.2113 2.25766 12.0033C2.25766 8.80199 2.27147 8.41756 2.33361 7.15162C2.38884 5.98509 2.59597 5.3488 2.76167 4.92461C2.98951 4.36123 3.25877 3.96355 3.69373 3.54598C4.12869 3.12842 4.54985 2.8633 5.1298 2.6512C5.57167 2.4855 6.23447 2.29329 7.4496 2.24026C8.7683 2.18061 9.16183 2.16736 12.5035 2.16736C15.8382 2.16736 16.2386 2.18061 17.5573 2.24026C18.7724 2.29329 19.4352 2.49213 19.8771 2.6512C20.464 2.86993 20.8782 3.12842 21.3132 3.54598C21.7481 3.96355 22.0243 4.36785 22.2452 4.92461C22.4178 5.3488 22.6181 5.98509 22.6733 7.15162C22.7354 8.41756 22.7423 8.79536 22.7423 12.0033C22.7423 15.2046 22.7285 15.5891 22.6733 16.855C22.6181 18.0282 22.4109 18.6578 22.2452 19.082C22.0174 19.6454 21.7481 20.0431 21.3132 20.4606C20.8782 20.8782 20.4571 21.1433 19.8771 21.3554C19.4352 21.5211 18.7724 21.7133 17.5573 21.7664C16.2386 21.826 15.8451 21.8393 12.5035 21.8393C9.16183 21.8393 8.7683 21.826 7.4496 21.7664ZM7.34604 0.072908C6.01353 0.13256 5.10909 0.3314 4.31511 0.62966C3.49351 0.934548 2.79619 1.34548 2.09887 2.01491C1.40155 2.68434 0.973488 3.34714 0.655896 4.1425C0.345208 4.90472 0.138083 5.77299 0.0759459 7.0522C0.0138083 8.3314 0 8.74234 0 11.9967C0 15.251 0.0138083 15.662 0.0759459 16.9412C0.138083 18.227 0.345208 19.0953 0.655896 19.8575C0.973488 20.6462 1.40155 21.3157 2.09887 21.9851C2.79619 22.6545 3.49351 23.0655 4.31511 23.3703C5.10909 23.6686 6.02044 23.8674 7.34604 23.9271C8.67854 23.9867 9.1066 24 12.4965 24C15.8934 24 16.3146 23.9867 17.6471 23.9271C18.9796 23.8674 19.884 23.6686 20.6849 23.3703C21.5065 23.0655 22.2038 22.6545 22.9011 21.9851C23.5985 21.3157 24.0265 20.6462 24.3441 19.8575C24.6548 19.0953 24.8619 18.2204 24.9241 16.9478C24.9862 15.6686 25 15.2577 25 12.0033C25 8.74896 24.9862 8.33803 24.9241 7.05882C24.8619 5.77962 24.6548 4.91135 24.3441 4.14913C24.0265 3.3604 23.5985 2.69097 22.9011 2.02154C22.2038 1.35211 21.5065 0.941176 20.6849 0.636288C19.8909 0.3314 18.9865 0.13256 17.654 0.072908C16.3215 0.013256 15.8934 0 12.4965 0C9.1066 0 8.67854 0.013256 7.34604 0.072908Z" fill="white"/>
</svg>
