<svg width="80" height="51" viewBox="0 0 80 51" fill="none" xmlns="http://www.w3.org/2000/svg">
<g clip-path="url(#clip0)">
<g clip-path="url(#clip1)">
<path d="M52.7509 7.5137H34.2764L30.6781 12.4224H47.9587L46.7056 8.60637L51.7518 12.4224H53.3435V13.2998H51.828L46.4431 21.321L47.8825 13.2998H45.1477L43.1835 19.4585L41.2107 13.2998H38.6622L39.5004 18.341L34.8522 13.2998H30.6696L43.5137 27.4548L56.7133 12.9108L52.7509 7.5137Z" fill="white"/>
<path d="M25.0223 16.5944C25.0223 23.6139 20.1794 29.7394 11.103 29.7394C8.19048 29.7394 5.61659 29.3421 5.27792 29.3421C5.10859 29.3421 2.97497 29.4415 1.95896 29.4415C1.58643 29.4415 1.41709 29.3752 1.41709 29.1766C1.41709 29.0772 1.48483 28.9779 1.68803 28.9779C1.99283 28.9779 2.39923 28.9448 2.70404 28.8455C3.24591 28.6799 3.41524 28.3819 3.61844 27.4217C3.78778 26.5608 3.85551 23.8788 3.85551 19.8393V14.0117C3.85551 8.44911 3.82164 7.05845 3.75391 6.49557C3.65231 5.7009 3.44911 5.20424 2.3315 4.97246C2.06056 4.90624 1.48483 4.87313 1.18002 4.87313C1.04456 4.87313 0.909088 4.80691 0.909088 4.67446C0.909088 4.4758 1.07842 4.40958 1.45096 4.40958C2.97497 4.40958 5.10859 4.50891 5.27792 4.50891C5.68433 4.50891 7.91954 4.40958 9.95156 4.40958C17.978 4.40958 25.0223 7.55512 25.0223 16.5944ZM6.70033 21.2962C6.70033 24.839 6.70033 27.6038 8.01268 28.266C8.51222 28.5143 9.46049 28.6137 11.2046 28.6137C17.7748 28.6137 21.9743 24.4086 21.9743 17.6208C21.9743 9.67422 15.7767 5.53535 7.64861 5.53535C6.97127 5.53535 6.70033 6.06512 6.70033 8.84644V21.2962Z" fill="white"/>
<path d="M77.169 9.09473C76.9235 9.09473 76.8811 8.92917 76.8388 8.66428C76.7965 8.26695 76.5509 7.38123 76.3054 7.02529C76.0598 6.66107 74.9592 5.28696 71.1915 5.28696C68.3721 5.28696 66.1622 6.70246 66.1622 9.09473C66.1622 10.9655 67.2629 12.1161 71.1576 14.616L73.5706 16.1639C76.6356 18.134 78.2781 20.2697 78.2781 23.0676C78.2781 26.7843 74.883 29.905 68.6176 29.905C66.6956 29.905 64.816 29.6732 63.1312 29.0193C62.5554 28.7875 62.5215 28.6551 62.5215 27.7693C62.5215 26.1303 62.6824 24.8142 62.7247 24.2844C62.7671 23.9202 62.8517 23.7546 63.0549 23.7546C63.3005 23.7546 63.3428 23.854 63.3428 24.1188C63.3428 24.4168 63.3428 24.8721 63.4698 25.3357C64.0794 27.7693 66.7803 28.6882 69.5235 28.6882C73.4521 28.6882 75.374 26.4201 75.374 24.3175C75.374 22.0494 74.1887 20.7332 70.6665 18.3989L68.8293 17.1821C64.4943 14.3263 63.5122 12.2899 63.5122 10.0549C63.5037 6.5369 66.7803 4.13635 71.9704 4.13635C73.5622 4.13635 74.756 4.2688 75.772 4.46746C76.5509 4.59991 76.8727 4.63302 77.2029 4.63302C77.5331 4.63302 77.6093 4.69924 77.6093 4.86479C77.6093 5.03035 77.4484 6.11474 77.4484 8.34973C77.4569 8.87123 77.3722 9.09473 77.169 9.09473Z" fill="white"/>
<path d="M5.61658 43.4143C5.61658 45.8314 5.61658 46.7585 5.15937 47.818C4.83764 48.563 4.16876 49.2666 2.93262 50.1027C2.73788 50.2351 2.49235 50.4007 2.33995 50.4752C2.30608 50.4917 2.28068 50.5083 2.22988 50.5083C2.18755 50.5083 2.11981 50.4752 2.11981 50.4172C2.11981 50.3262 2.19601 50.2848 2.33148 50.1937C2.51775 50.0861 2.72942 49.9123 2.86489 49.7799C3.85549 48.7948 4.32963 48.0001 4.32963 44.151V39.8383C4.32963 37.5122 4.32963 37.0901 4.29576 36.6182C4.2619 36.1133 4.14336 35.8732 3.63536 35.7656C3.51682 35.7325 3.25436 35.7242 3.11889 35.7242C3.05962 35.7242 3.00035 35.6911 3.00035 35.6332C3.00035 35.5421 3.07655 35.5173 3.24589 35.5173C3.93169 35.5173 4.8969 35.5587 4.9731 35.5587C5.0493 35.5587 6.01451 35.5173 6.47172 35.5173C6.64105 35.5173 6.71725 35.5504 6.71725 35.6332C6.71725 35.6911 6.65798 35.7242 6.59872 35.7242C6.48865 35.7242 6.40398 35.7408 6.21771 35.7656C5.80284 35.8401 5.68431 36.0967 5.65044 36.6182C5.61658 37.0984 5.61658 37.5122 5.61658 39.8383V43.4143Z" fill="white"/>
<path d="M12.1783 40.3598C12.1783 40.4674 12.1952 40.5088 12.2714 40.5088C12.4661 40.5088 14.3458 40.5088 14.7014 40.4757C15.0654 40.4426 15.2856 40.4177 15.421 40.2687C15.5311 40.1528 15.5904 40.0783 15.6496 40.0783C15.692 40.0783 15.7258 40.1115 15.7258 40.1942C15.7258 40.2522 15.5396 41.2538 15.5396 41.9822C15.5396 42.1478 15.5226 42.2637 15.4295 42.2637C15.3533 42.2637 15.3194 42.2057 15.3194 42.1312C15.3194 41.9822 15.3194 41.8332 15.2602 41.6428C15.2009 41.4359 15.0654 41.1793 14.4643 41.1213C14.0494 41.08 12.5424 41.0468 12.2799 41.0468C12.2037 41.0468 12.1698 41.0882 12.1698 41.1545V45.0202C12.1698 46.0052 12.4407 46.2453 13.9394 46.2453C14.3373 46.2453 15.0062 46.2453 15.4041 46.0797C15.802 45.9142 15.9883 45.6162 16.0899 45.0036C16.1238 44.8381 16.1492 44.7801 16.2254 44.7801C16.3185 44.7801 16.3185 44.896 16.3185 45.0036C16.3185 45.1195 16.2 46.1377 16.1238 46.4522C16.0137 46.8413 15.8952 46.8413 15.3025 46.8413C12.9996 46.8413 11.9751 46.7502 11.5348 46.7502C11.1369 46.7502 10.3749 46.7916 10.0362 46.7916C9.86686 46.7916 9.79066 46.7585 9.79066 46.6757C9.79066 46.6343 9.82453 46.5847 9.9092 46.5847C10.0447 46.5847 10.2309 46.5681 10.3664 46.5267C10.6119 46.4522 10.6881 46.3198 10.7813 45.881C10.8575 45.492 10.8913 44.2834 10.8913 42.4623V39.8383C10.8913 37.3301 10.8744 36.701 10.849 36.4527C10.8067 36.0968 10.7135 35.8733 10.2055 35.7656C10.087 35.7325 9.82453 35.7243 9.68906 35.7243C9.62979 35.7243 9.57053 35.6911 9.57053 35.6332C9.57053 35.5421 9.64673 35.5173 9.81606 35.5173C10.5019 35.5173 11.4671 35.5587 11.5433 35.5587C13.1943 35.5587 14.7522 35.5421 14.9892 35.5256C15.2348 35.509 15.5988 35.4842 15.6581 35.4676C15.7512 35.4345 15.8105 35.3766 15.8698 35.3766C15.929 35.3766 15.9629 35.4676 15.9629 35.5421C15.9629 35.6498 15.8867 35.8236 15.8444 36.2458C15.8274 36.3947 15.802 37.0487 15.7682 37.2308C15.7512 37.3053 15.7258 37.3798 15.6496 37.3798C15.5734 37.3798 15.5396 37.3219 15.5396 37.2142C15.5396 37.0984 15.4972 36.8417 15.4041 36.6431C15.311 36.4527 14.9469 36.1547 14.0494 36.1547C13.9563 36.1547 12.5847 36.1133 12.2799 36.1133C12.2206 36.1133 12.1867 36.1464 12.1867 36.2458V40.3598H12.1783Z" fill="white"/>
<path d="M30.5173 44.7304H30.5766C30.9914 43.3563 32.3969 39.027 32.9303 37.1232C33.0827 36.5686 33.0997 36.3616 33.0997 36.1712C33.0997 35.9063 32.9303 35.7242 32.2276 35.7242C32.1514 35.7242 32.0921 35.6828 32.0921 35.6166C32.0921 35.5421 32.1683 35.509 32.3546 35.509C33.1335 35.509 33.777 35.5504 33.9125 35.5504C34.0225 35.5504 34.6745 35.509 35.1486 35.509C35.2841 35.509 35.3603 35.5421 35.3603 35.6001C35.3603 35.6746 35.3179 35.7159 35.2248 35.7159C35.1655 35.7159 34.8777 35.7325 34.7083 35.7904C34.2511 35.956 34.0056 36.5851 33.7177 37.4046C33.0489 39.3002 31.5079 44.0434 30.9068 45.7155C30.5088 46.8164 30.4326 46.9985 30.2633 46.9985C30.1109 46.9985 30.0178 46.8081 29.8061 46.2204L26.8173 37.9261H26.7835C26.2331 39.3582 24.1419 44.8215 23.5915 46.2121C23.346 46.8412 23.2698 47.0068 23.092 47.0068C22.9396 47.0068 22.8634 46.8412 22.5586 45.8314L19.8408 36.9824C19.5952 36.1878 19.4005 35.9643 19.0025 35.8153C18.8078 35.7408 18.4183 35.7242 18.3167 35.7242C18.2405 35.7242 18.1813 35.7077 18.1813 35.6166C18.1813 35.5421 18.2744 35.509 18.4268 35.509C19.2227 35.509 20.0609 35.5504 20.2302 35.5504C20.3657 35.5504 21.043 35.509 21.805 35.509C22.0167 35.509 22.076 35.5504 22.076 35.6166C22.076 35.7077 21.9998 35.7242 21.9236 35.7242C21.805 35.7242 21.5087 35.7242 21.3309 35.8153C21.2378 35.8567 21.1362 35.9808 21.1362 36.1712C21.1362 36.3616 21.2716 36.8914 21.424 37.5453C21.6526 38.4973 23.2444 43.9771 23.473 44.7718H23.5068L26.7157 36.254C26.9443 35.6414 27.0036 35.5669 27.0967 35.5669C27.2068 35.5669 27.2915 35.7573 27.4777 36.2706L30.5173 44.7304Z" fill="white"/>
<path d="M39.6275 40.3598C39.6275 40.4674 39.6444 40.5088 39.7206 40.5088C39.9153 40.5088 41.7949 40.5088 42.1505 40.4757C42.5146 40.4426 42.7347 40.4177 42.8702 40.2687C42.9803 40.1528 43.0395 40.0783 43.0988 40.0783C43.1411 40.0783 43.175 40.1115 43.175 40.1942C43.175 40.2522 42.9887 41.2538 42.9887 41.9822C42.9887 42.1478 42.9718 42.2637 42.8787 42.2637C42.8025 42.2637 42.7686 42.2057 42.7686 42.1312C42.7686 41.9822 42.7686 41.8332 42.7093 41.6428C42.6501 41.4359 42.5146 41.1793 41.9135 41.1213C41.4986 41.08 39.9915 41.0468 39.7291 41.0468C39.6529 41.0468 39.619 41.0882 39.619 41.1545V45.0202C39.619 46.0052 39.8899 46.2453 41.3885 46.2453C41.7865 46.2453 42.4553 46.2453 42.8533 46.0797C43.2512 45.9142 43.429 45.6162 43.5391 45.0036C43.5729 44.8381 43.5983 44.7801 43.6745 44.7801C43.7677 44.7801 43.7677 44.896 43.7677 45.0036C43.7677 45.1195 43.6491 46.1377 43.5729 46.4522C43.4629 46.8413 43.3443 46.8413 42.7517 46.8413C40.4487 46.8413 39.4243 46.7502 38.984 46.7502C38.5861 46.7502 37.8241 46.7916 37.4854 46.7916C37.316 46.7916 37.2398 46.7585 37.2398 46.6757C37.2398 46.6343 37.2737 46.5847 37.3584 46.5847C37.4938 46.5847 37.6801 46.5681 37.8156 46.5267C38.0611 46.4522 38.1373 46.3198 38.2305 45.881C38.3067 45.492 38.3405 44.2834 38.3405 42.4623V39.8383C38.3405 37.3301 38.3236 36.701 38.2982 36.4527C38.2559 36.0968 38.1627 35.8733 37.6547 35.7656C37.5362 35.7325 37.2737 35.7243 37.1382 35.7243C37.079 35.7243 37.0197 35.6911 37.0197 35.6332C37.0197 35.5421 37.0959 35.5173 37.2652 35.5173C37.9511 35.5173 38.9163 35.5587 38.9925 35.5587C40.6435 35.5587 42.2013 35.5421 42.4384 35.5256C42.6839 35.509 43.048 35.4842 43.1073 35.4676C43.2004 35.4345 43.2597 35.3766 43.3189 35.3766C43.3782 35.3766 43.4121 35.4676 43.4121 35.5421C43.4121 35.6498 43.3359 35.8236 43.2935 36.2458C43.2766 36.3947 43.2512 37.0487 43.2173 37.2308C43.2004 37.3053 43.175 37.3798 43.0988 37.3798C43.0226 37.3798 42.9887 37.3219 42.9887 37.2142C42.9887 37.0984 42.9464 36.8417 42.8533 36.6431C42.7601 36.4527 42.3961 36.1547 41.4986 36.1547C41.4055 36.1547 40.0339 36.1133 39.7291 36.1133C39.6698 36.1133 39.6359 36.1464 39.6359 36.2458V40.3598H39.6275Z" fill="white"/>
<path d="M49.3473 42.4872C49.3473 44.6808 49.4066 45.6327 49.686 45.9059C49.9315 46.1459 50.3295 46.2453 51.5148 46.2453C52.3276 46.2453 52.9965 46.2287 53.3605 45.7983C53.5553 45.5582 53.7077 45.1857 53.7585 44.9043C53.7754 44.7884 53.8008 44.7139 53.8939 44.7139C53.9701 44.7139 53.9871 44.7718 53.9871 44.9374C53.9871 45.1029 53.877 45.9969 53.7585 46.4274C53.6484 46.7668 53.6061 46.833 52.7933 46.833C50.5919 46.833 49.5844 46.7419 48.7038 46.7419C48.5684 46.7419 47.6624 46.7833 47.2052 46.7833C47.0359 46.7833 46.9597 46.7502 46.9597 46.6674C46.9597 46.626 46.9936 46.5764 47.0782 46.5764C47.2137 46.5764 47.4 46.5433 47.5354 46.5184C47.8402 46.4605 47.9164 46.1294 47.9757 45.6989C48.0519 45.0698 48.0519 43.8944 48.0519 42.4623V39.8383C48.0519 37.5122 48.0519 37.0901 48.018 36.6182C47.9842 36.1133 47.8656 35.8732 47.3576 35.7656C47.2391 35.7325 46.9766 35.7242 46.8412 35.7242C46.7819 35.7242 46.7226 35.6911 46.7226 35.6332C46.7226 35.5421 46.7988 35.5173 46.9682 35.5173C47.654 35.5173 48.6192 35.5587 48.6954 35.5587C48.7716 35.5587 49.8892 35.5173 50.3464 35.5173C50.5157 35.5173 50.5919 35.5504 50.5919 35.6332C50.5919 35.6911 50.5327 35.7242 50.4734 35.7242C50.3633 35.7242 50.1517 35.7408 49.9654 35.7656C49.5251 35.8401 49.3981 36.0967 49.3727 36.6182C49.3388 37.0984 49.3388 37.5122 49.3388 39.8383V42.4872H49.3473Z" fill="white"/>
<path d="M57.5177 39.83C57.5177 37.5039 57.5177 37.0818 57.4838 36.6099C57.45 36.105 57.3314 35.8649 56.8234 35.7573C56.7049 35.7242 56.4424 35.7159 56.3069 35.7159C56.2477 35.7159 56.1884 35.6828 56.1884 35.6249C56.1884 35.5338 56.2646 35.509 56.4339 35.509C57.1198 35.509 58.085 35.5504 58.1612 35.5504C58.3305 35.5504 59.4904 35.509 59.9646 35.509C60.9298 35.509 61.9458 35.6001 62.7586 36.1629C63.1396 36.4278 63.8085 37.1646 63.8085 38.191C63.8085 39.2919 63.3343 40.4011 61.9627 41.6345C63.2158 43.199 64.2487 44.5317 65.1378 45.4589C65.959 46.3115 66.6194 46.477 67.0004 46.535C67.2883 46.5763 67.5084 46.5763 67.5931 46.5763C67.6693 46.5763 67.7286 46.6177 67.7286 46.6674C67.7286 46.7585 67.6354 46.7833 67.3645 46.7833H66.2723C65.4172 46.7833 65.0362 46.7088 64.6382 46.5018C63.9778 46.1625 63.4444 45.4257 62.5808 44.3082C61.9373 43.4887 61.2261 42.4871 60.9213 42.0981C60.8621 42.0401 60.8113 42.007 60.7266 42.007L58.847 41.9739C58.7708 41.9739 58.7369 42.0153 58.7369 42.0898V42.4458C58.7369 43.8778 58.7369 45.0532 58.8131 45.6824C58.8554 46.1128 58.9486 46.4439 59.4058 46.5018C59.6174 46.535 59.9561 46.5598 60.0916 46.5598C60.1847 46.5598 60.2101 46.6012 60.2101 46.6508C60.2101 46.7253 60.1339 46.7667 59.9646 46.7667C59.1264 46.7667 58.1612 46.7253 58.085 46.7253C58.068 46.7253 57.1113 46.7667 56.6541 46.7667C56.4848 46.7667 56.4085 46.7336 56.4085 46.6508C56.4085 46.6095 56.4424 46.5598 56.5271 46.5598C56.6626 46.5598 56.8488 46.5267 56.9843 46.5018C57.2891 46.4439 57.3653 46.1128 57.4246 45.6824C57.5008 45.0532 57.5008 43.8778 57.5008 42.4458V39.83H57.5177ZM58.7369 41.1296C58.7369 41.2041 58.7708 41.262 58.847 41.3117C59.0756 41.4441 59.7783 41.5518 60.4472 41.5518C60.8113 41.5518 61.2431 41.5104 61.5902 41.2703C62.1236 40.9144 62.5215 40.1031 62.5215 38.9691C62.5215 37.1066 61.514 35.9808 59.8799 35.9808C59.4227 35.9808 59.0078 36.0222 58.8554 36.0719C58.7792 36.105 58.7369 36.1629 58.7369 36.254V41.1296Z" fill="white"/>
<path d="M72.9609 42.9259C72.9609 42.1229 72.8085 41.7918 72.6138 41.3614C72.5037 41.1213 70.4632 37.8433 69.9298 37.0652C69.5488 36.5106 69.1678 36.1381 68.8884 35.9643C68.6598 35.8153 68.372 35.7242 68.228 35.7242C68.1518 35.7242 68.0756 35.6911 68.0756 35.6166C68.0756 35.5587 68.1349 35.509 68.2704 35.509C68.5582 35.509 69.7012 35.5504 69.7774 35.5504C69.8875 35.5504 70.4632 35.509 71.0559 35.509C71.2253 35.509 71.2506 35.5504 71.2506 35.6166C71.2506 35.6746 71.1575 35.6911 71.022 35.7491C70.9035 35.807 70.8273 35.8981 70.8273 36.0139C70.8273 36.1961 70.9035 36.3699 71.022 36.5934C71.2676 37.0238 73.5536 40.873 73.833 41.3117C74.1209 40.6826 76.0598 37.4129 76.3646 36.9245C76.5593 36.6099 76.627 36.3533 76.627 36.1629C76.627 35.956 76.5678 35.7904 76.3815 35.7491C76.246 35.7077 76.1529 35.6746 76.1529 35.6001C76.1529 35.5421 76.246 35.509 76.3984 35.509C76.7964 35.509 77.2874 35.5504 77.406 35.5504C77.4991 35.5504 78.5998 35.509 78.8877 35.509C78.9977 35.509 79.0824 35.5421 79.0824 35.6001C79.0824 35.6746 79.0062 35.7159 78.8877 35.7159C78.7183 35.7159 78.4304 35.7739 78.1849 35.9229C77.8801 36.105 77.7108 36.2788 77.3721 36.6844C76.8726 37.2804 74.7305 40.7902 74.4595 41.4276C74.2309 41.9656 74.2309 42.4292 74.2309 42.9176V44.2006C74.2309 44.4407 74.2309 45.0698 74.2733 45.6906C74.3071 46.1211 74.4426 46.4522 74.8998 46.5101C75.1115 46.5432 75.4502 46.5681 75.5856 46.5681C75.6788 46.5681 75.7042 46.6095 75.7042 46.6591C75.7042 46.7336 75.628 46.775 75.4586 46.775C74.6204 46.775 73.6552 46.7336 73.579 46.7336C73.5028 46.7336 72.5376 46.775 72.0804 46.775C71.9111 46.775 71.8349 46.7419 71.8349 46.6591C71.8349 46.6177 71.8687 46.5681 71.9534 46.5681C72.0889 46.5681 72.2751 46.535 72.4106 46.5101C72.7154 46.4522 72.8509 46.1211 72.8847 45.6906C72.9271 45.0615 72.9271 44.4407 72.9271 44.2006V42.9259H72.9609Z" fill="white"/>
</g>
</g>
<defs>
<clipPath id="clip0">
<rect width="80" height="50" fill="white" transform="translate(0 0.5)"/>
</clipPath>
<clipPath id="clip1">
<rect width="80" height="48.1818" fill="white" transform="translate(0 4.13635)"/>
</clipPath>
</defs>
</svg>
