<svg width="92" height="108" viewBox="0 0 92 108" fill="none" xmlns="http://www.w3.org/2000/svg">
<path d="M2.53573 54.1014L2.53283 54.09L2.52965 54.0787C1.50811 50.4307 1 46.8326 1 43.3229C1 20.0356 21.1231 1 46 1C70.8769 1 91 20.0356 91 43.3229C91 46.8341 90.4915 50.4722 89.4711 54.0759L89.462 54.108L89.4551 54.1406C89.2817 54.9574 82.5695 81.1223 47.8958 106.123L47.8872 106.129L47.8788 106.136C47.2759 106.59 46.9085 106.767 46.6719 106.843C46.4526 106.914 46.2964 106.918 46 106.918C45.7036 106.918 45.5474 106.914 45.3281 106.843C45.0915 106.767 44.7241 106.59 44.1212 106.136L44.1128 106.129L44.1042 106.123C9.4404 81.1294 2.75561 54.9643 2.53573 54.1014Z" fill="#343E45" fill-opacity="0.9" stroke="#A39385" stroke-width="2"/>
<path d="M66.4798 32.783H26.7555L19.0182 42.4851H56.1756L53.4812 34.9427L64.3316 42.4851H67.7542V44.2193H64.4955L52.9168 60.0731L56.0117 44.2193H50.1313L45.9077 56.3918L41.6658 44.2193H36.186L37.9883 54.1831L27.9935 44.2193H19L46.6177 72.1965L75 43.4503L66.4798 32.783Z" fill="#EEE9E4"/>
</svg>
