<svg width="14" height="7" viewBox="0 0 14 7" fill="none" xmlns="http://www.w3.org/2000/svg">
<path d="M6.93117 0C4.36173 0 2.03163 1.22752 0.312257 3.22135C0.171956 3.38469 0.171956 3.6129 0.312257 3.77625C2.03163 5.77248 4.36173 7 6.93117 7C9.50061 7 11.8307 5.77248 13.5501 3.77865C13.6904 3.61531 13.6904 3.3871 13.5501 3.22375C11.8307 1.22752 9.50061 0 6.93117 0ZM7.11549 5.96465C5.40986 6.05834 4.00135 4.83082 4.10864 3.33905C4.19667 2.10913 5.33834 1.11222 6.74685 1.03535C8.45247 0.941661 9.86099 2.16918 9.7537 3.66095C9.66291 4.88847 8.52125 5.88538 7.11549 5.96465ZM7.0302 4.82601C6.11137 4.87646 5.35209 4.21585 5.41262 3.41352C5.45938 2.75051 6.07561 2.21482 6.83488 2.17159C7.75372 2.12114 8.513 2.78174 8.45247 3.58408C8.40296 4.24949 7.78673 4.78517 7.0302 4.82601Z" fill="#A39385"/>
</svg>
