<svg width="124" height="53" viewBox="0 0 124 53" fill="none" xmlns="http://www.w3.org/2000/svg">
<path fill-rule="evenodd" clip-rule="evenodd" d="M11.7672 38.6544C6.4309 38.6544 4.00221 40.1266 3.04441 43.208L0 53H103.715C109.052 53 111.48 51.5278 112.438 48.4464L115.482 38.6544H11.7672ZM24.2527 24.9935H19.1217C11.1172 24.9935 16.9324 7.97739 23.6712 7.97739H31.7782C33.0781 7.97739 35.3699 8.21705 36.4988 4.99871L38.2433 0H27.1261C21.1057 0 16.4193 2.12274 13.0328 5.68346C7.18345 11.7778 5.19945 21.2959 6.60193 25.8495C7.936 30.0607 11.5619 32.834 17.2403 32.9025L21.653 32.9367H27.0919L28.4259 28.9309C29.4179 26.0891 27.1945 24.9935 24.2527 24.9935ZM86.7145 17.9406L88.3906 12.4968H70.5004C67.5244 12.4968 66.1903 13.3185 65.6772 15.0304L64.0011 20.4742H81.8913C84.8673 20.4742 86.2014 19.6525 86.7145 17.9406ZM61.333 27.5271L59.6568 32.9709H77.547C80.4888 32.9709 81.8571 32.1492 82.3702 30.4373L84.0463 24.9935H66.1561C63.2143 24.9935 61.8803 25.8152 61.333 27.5271ZM90.8877 5.47804L92.5639 0.0342377H74.6737C71.6977 0.0342377 70.3636 0.855943 69.8505 2.56783L68.1743 8.01163H86.0646C89.0063 8.01163 90.3404 7.18992 90.8877 5.47804ZM63.8643 6.57364C63.1117 1.50646 60.4094 0.0342377 53.8417 0.0342377H41.8692L34.891 20.4742H39.3037C41.9377 20.4742 43.2717 20.5084 44.6742 16.7422L47.5818 7.97739H52.0287C55.8257 7.97739 54.9705 12.7364 53.0549 17.3585C51.3446 21.4328 48.3685 25.0278 44.7768 25.0278H37.3539C34.3779 25.0278 33.0097 25.8495 32.4623 27.5614L30.6152 33.0052H36.0541L41.3903 32.9709C46.1109 32.9367 49.9763 32.5943 54.4916 28.52C59.2806 24.1718 64.8221 13.0103 63.8643 6.57364ZM124 0H113.635L103.886 10.374C102.758 11.5724 101.594 12.7707 100.466 14.1744H100.363L105.22 0H96.7713L85.3804 32.9709H93.8295L97.4554 22.5969L101.218 19.4128L104.194 28.7939C105.118 31.7041 106.076 32.9709 108.128 32.9709H114.593L107.957 14.551L124 0Z" fill="#00B33C"/>
<path d="M11.2883 46.6318V49.3366H9.7832V41.8385H12.7592C13.6144 41.8385 14.2985 42.0439 14.7774 42.489C15.2563 42.9341 15.53 43.5161 15.53 44.2351C15.53 44.9541 15.2905 45.5362 14.7774 45.9813C14.2985 46.4264 13.6144 46.6318 12.7592 46.6318H11.2883ZM11.2883 45.4677H12.7592C13.1697 45.4677 13.4775 45.365 13.717 45.1253C13.9222 44.8857 14.0249 44.6118 14.0249 44.2694C14.0249 43.8928 13.9222 43.6189 13.717 43.3792C13.5118 43.1395 13.1697 43.0368 12.7592 43.0368H11.2883V45.4677ZM19.8058 47.7274H17.1719L16.6588 49.3366H15.1537L17.7192 41.8385H19.2585L21.824 49.3366H20.3189L19.8058 47.7274ZM17.5482 46.5291H19.4295L18.506 43.5846H18.4718L17.5482 46.5291ZM27.3313 43.0026H24.0133V44.4748H25.3131C26.1683 44.4748 26.8524 44.7145 27.3655 45.1596C27.8787 45.6046 28.1181 46.1867 28.1181 46.9057C28.1181 47.6247 27.8787 48.2067 27.3655 48.6518C26.8524 49.0969 26.1683 49.3366 25.3131 49.3366H22.4398V41.8385H27.3313V43.0026ZM24.0133 45.6389V48.1725H25.3131C25.7236 48.1725 26.0657 48.0355 26.2709 47.7959C26.4762 47.5562 26.613 47.2481 26.613 46.8714C26.613 46.5291 26.5104 46.2209 26.2709 45.9813C26.0315 45.7416 25.7236 45.6047 25.3131 45.6047H24.0133V45.6389ZM35.1647 46.2552C35.1647 47.1796 34.8911 47.9328 34.3095 48.5491C33.728 49.1654 32.9755 49.4393 32.0519 49.4393C31.1283 49.4393 30.3758 49.1311 29.7942 48.5491C29.2127 47.967 28.9391 47.1796 28.9391 46.2552V44.9199C28.9391 43.9955 29.2127 43.2422 29.7942 42.626C30.3758 42.0097 31.1283 41.7358 32.0519 41.7358C32.9755 41.7358 33.728 42.0439 34.3095 42.626C34.8911 43.208 35.1989 43.9955 35.1989 44.9199L35.1647 46.2552ZM33.6596 44.9199C33.6596 44.3379 33.5228 43.8585 33.2149 43.4819C32.9071 43.1053 32.5308 42.9341 32.0177 42.9341C31.5046 42.9341 31.0941 43.1053 30.8204 43.4819C30.5468 43.8585 30.41 44.3379 30.41 44.9199V46.2894C30.41 46.8714 30.5468 47.385 30.8204 47.7274C31.0941 48.104 31.5046 48.2752 32.0177 48.2752C32.5308 48.2752 32.9413 48.104 33.2149 47.7274C33.4886 47.3508 33.6596 46.8714 33.6596 46.2894V44.9199ZM41.322 43.0026H39.2011V49.3366H37.696V43.0026H35.5752V41.8385H41.2878L41.322 43.0026ZM45.6662 47.7274H43.0323L42.5192 49.3366H41.0141L43.5796 41.8385H45.1189L47.6844 49.3366H46.1793L45.6662 47.7274ZM43.4086 46.5291H45.29L44.3664 43.5846H44.3322L43.4086 46.5291ZM53.0207 46.0497H49.9079V48.1725H53.5338V49.3366H48.4028V41.8385H53.5338V43.0026H49.9079V44.8857H53.0207V46.0497ZM56.4072 41.8385L58.3228 47.3508H58.357L60.2726 41.8385H62.2224V49.3366H60.7173V47.1111L60.8541 43.79H60.8199L58.8017 49.3366H57.8097L55.8257 43.8243H55.7915L55.9283 47.1111V49.3366H54.4232V41.8385H56.4072ZM66.2588 49.3366V41.8385H68.7901C69.6795 41.8385 70.3636 42.0097 70.8425 42.3521C71.3214 42.6944 71.5951 43.208 71.5951 43.8928C71.5951 44.2351 71.4924 44.5433 71.3214 44.8172C71.1504 45.0911 70.8767 45.2965 70.5346 45.4335C70.9793 45.5362 71.3214 45.7416 71.5609 46.0497C71.8003 46.3579 71.9029 46.7345 71.9029 47.1453C71.9029 47.8643 71.6635 48.4121 71.1846 48.7888C70.7057 49.1654 70.0558 49.3366 69.1664 49.3366H66.2588ZM67.7639 44.9884H68.8585C69.269 44.9884 69.5769 44.9199 69.7821 44.7487C69.9873 44.5775 70.09 44.3379 70.09 44.0297C70.09 43.6873 69.9873 43.4134 69.7479 43.2765C69.5426 43.1053 69.2006 43.0368 68.7901 43.0368H67.7639V44.9884ZM67.7639 46.0155V48.1725H69.1322C69.5427 48.1725 69.8163 48.0698 70.0558 47.8986C70.2952 47.7274 70.3636 47.4535 70.3636 47.1453C70.3636 46.7687 70.261 46.4948 70.09 46.2894C69.9189 46.084 69.6453 46.0155 69.2348 46.0155H67.7639ZM78.6759 46.7687C78.7101 47.5904 78.4706 48.241 77.9575 48.7203C77.4444 49.1996 76.7603 49.4393 75.8367 49.4393C74.9473 49.4393 74.1948 49.1654 73.6475 48.5833C73.1002 48.0013 72.7923 47.2481 72.7923 46.3579V44.8857C72.7923 43.9612 73.066 43.2422 73.6133 42.6602C74.1606 42.0782 74.8789 41.77 75.7683 41.77C76.6919 41.77 77.4102 42.0097 77.9233 42.489C78.4364 42.9683 78.7101 43.6189 78.6759 44.4406V44.4748H77.205C77.205 43.9955 77.1024 43.6189 76.8629 43.345C76.6235 43.0711 76.2472 42.9683 75.7683 42.9683C75.3236 42.9683 74.9473 43.1395 74.7079 43.5161C74.4342 43.8928 74.2974 44.3379 74.2974 44.9199V46.4264C74.2974 47.0084 74.4342 47.4535 74.7079 47.8301C74.9815 48.2067 75.3578 48.3779 75.8367 48.3779C76.3156 48.3779 76.6577 48.241 76.8629 48.0013C77.1024 47.7616 77.205 47.385 77.205 46.8714H78.6759V46.7687ZM84.3542 46.0497H81.2414V48.1725H84.8673V49.3366H79.7363V41.8385H84.8673V43.0026H81.2414V44.8857H84.3542V46.0497ZM90.6825 43.0026H87.296V49.3366H85.7909V41.8385H90.6825V43.0026ZM97.6265 51.1854H96.2582V49.3366H91.6745V51.1854H90.3062L90.2036 48.1725H90.7851C91.0588 47.9328 91.2982 47.5904 91.5035 47.0769C91.7087 46.5975 91.8113 45.8443 91.8456 44.8857L92.0508 41.8043H96.9082V48.1382H97.7975L97.6265 51.1854ZM93.2822 44.9199C93.248 45.6731 93.1454 46.3236 93.0086 46.8372C92.8717 47.385 92.6665 47.8301 92.4271 48.1725H95.3689V43.0026H93.4191L93.2822 44.9199ZM102.723 47.7274H100.089L99.5763 49.3366H98.0712L100.637 41.8385H102.176L104.742 49.3366H103.236L102.723 47.7274ZM100.466 46.5291H102.347L101.423 43.5846H101.389L100.466 46.5291ZM106.931 46.7345H105.426V41.8385H106.931V46.7345ZM106.931 49.3366H105.426V48.0355H106.931V49.3366Z" fill="white"/>
</svg>
